<mxfile host="Electron" modified="2023-07-26T18:33:19.433Z" agent="Mozilla/5.0 (Windows NT 10.0; Win64; x64) AppleWebKit/537.36 (KHTML, like Gecko) draw.io/21.6.5 Chrome/114.0.5735.243 Electron/25.3.1 Safari/537.36" etag="Zg0PAPN3XngL3RMWFLjK" version="21.6.5" type="device">
  <diagram name="Página-1" id="Xkpn4DoHQvbm-Muo7CrW">
    <mxGraphModel dx="1276" dy="614" grid="1" gridSize="10" guides="1" tooltips="1" connect="1" arrows="1" fold="1" page="0" pageScale="1" pageWidth="827" pageHeight="1169" math="0" shadow="0">
      <root>
        <mxCell id="0" />
        <mxCell id="1" parent="0" />
        <mxCell id="oQco-0OTMx9-7XILpxHP-4" style="edgeStyle=orthogonalEdgeStyle;rounded=0;orthogonalLoop=1;jettySize=auto;html=1;exitX=1;exitY=0.5;exitDx=0;exitDy=0;endArrow=none;endFill=0;" parent="1" source="oQco-0OTMx9-7XILpxHP-1" target="oQco-0OTMx9-7XILpxHP-3" edge="1">
          <mxGeometry relative="1" as="geometry" />
        </mxCell>
        <mxCell id="oQco-0OTMx9-7XILpxHP-1" value="&lt;font style=&quot;font-size: 14px;&quot;&gt;Filme&lt;/font&gt;" style="rounded=0;whiteSpace=wrap;html=1;" parent="1" vertex="1">
          <mxGeometry x="240" y="310" width="120" height="60" as="geometry" />
        </mxCell>
        <mxCell id="oQco-0OTMx9-7XILpxHP-28" style="edgeStyle=orthogonalEdgeStyle;rounded=0;orthogonalLoop=1;jettySize=auto;html=1;entryX=0.5;entryY=0;entryDx=0;entryDy=0;endArrow=none;endFill=0;" parent="1" source="oQco-0OTMx9-7XILpxHP-2" target="oQco-0OTMx9-7XILpxHP-27" edge="1">
          <mxGeometry relative="1" as="geometry" />
        </mxCell>
        <mxCell id="oQco-0OTMx9-7XILpxHP-29" style="edgeStyle=orthogonalEdgeStyle;rounded=0;orthogonalLoop=1;jettySize=auto;html=1;entryX=0.5;entryY=0;entryDx=0;entryDy=0;endArrow=none;endFill=0;" parent="1" source="oQco-0OTMx9-7XILpxHP-2" target="oQco-0OTMx9-7XILpxHP-26" edge="1">
          <mxGeometry relative="1" as="geometry" />
        </mxCell>
        <mxCell id="oQco-0OTMx9-7XILpxHP-2" value="&lt;font style=&quot;font-size: 14px;&quot;&gt;Gênero&lt;/font&gt;" style="rounded=0;whiteSpace=wrap;html=1;" parent="1" vertex="1">
          <mxGeometry x="550" y="310" width="120" height="60" as="geometry" />
        </mxCell>
        <mxCell id="oQco-0OTMx9-7XILpxHP-5" style="edgeStyle=orthogonalEdgeStyle;rounded=0;orthogonalLoop=1;jettySize=auto;html=1;endArrow=none;endFill=0;" parent="1" source="oQco-0OTMx9-7XILpxHP-3" target="oQco-0OTMx9-7XILpxHP-2" edge="1">
          <mxGeometry relative="1" as="geometry" />
        </mxCell>
        <mxCell id="oQco-0OTMx9-7XILpxHP-3" value="&lt;font style=&quot;font-size: 14px;&quot;&gt;Possui&lt;/font&gt;" style="rhombus;whiteSpace=wrap;html=1;" parent="1" vertex="1">
          <mxGeometry x="420" y="260" width="80" height="80" as="geometry" />
        </mxCell>
        <mxCell id="oQco-0OTMx9-7XILpxHP-8" value="&lt;font style=&quot;font-size: 14px;&quot;&gt;1&lt;/font&gt;" style="text;html=1;align=center;verticalAlign=middle;resizable=0;points=[];autosize=1;strokeColor=none;fillColor=none;" parent="1" vertex="1">
          <mxGeometry x="520" y="340" width="30" height="30" as="geometry" />
        </mxCell>
        <mxCell id="oQco-0OTMx9-7XILpxHP-9" value="&lt;font style=&quot;font-size: 14px;&quot;&gt;N&lt;/font&gt;" style="text;html=1;align=center;verticalAlign=middle;resizable=0;points=[];autosize=1;strokeColor=none;fillColor=none;" parent="1" vertex="1">
          <mxGeometry x="360" y="340" width="30" height="30" as="geometry" />
        </mxCell>
        <mxCell id="oQco-0OTMx9-7XILpxHP-14" value="Você deverá criar a modelagem para o catálogo de filmes, observando a seguinte situação:&#xa;&#xa;&#xa;- um filme possui apenas um único gênero.&#xa;- um gênero pode definir mais de um filme." style="text;whiteSpace=wrap;fontSize=14;" parent="1" vertex="1">
          <mxGeometry x="20" y="20" width="520" height="100" as="geometry" />
        </mxCell>
        <mxCell id="oQco-0OTMx9-7XILpxHP-22" style="edgeStyle=orthogonalEdgeStyle;rounded=0;orthogonalLoop=1;jettySize=auto;html=1;endArrow=none;endFill=0;" parent="1" source="oQco-0OTMx9-7XILpxHP-15" edge="1">
          <mxGeometry relative="1" as="geometry">
            <mxPoint x="180" y="320" as="targetPoint" />
          </mxGeometry>
        </mxCell>
        <mxCell id="oQco-0OTMx9-7XILpxHP-15" value="&lt;font style=&quot;font-size: 14px;&quot;&gt;Título&lt;/font&gt;" style="ellipse;whiteSpace=wrap;html=1;" parent="1" vertex="1">
          <mxGeometry x="20" y="220" width="120" height="50" as="geometry" />
        </mxCell>
        <mxCell id="oQco-0OTMx9-7XILpxHP-21" style="edgeStyle=orthogonalEdgeStyle;rounded=0;orthogonalLoop=1;jettySize=auto;html=1;entryX=0;entryY=0.5;entryDx=0;entryDy=0;endArrow=none;endFill=0;" parent="1" source="oQco-0OTMx9-7XILpxHP-16" target="oQco-0OTMx9-7XILpxHP-1" edge="1">
          <mxGeometry relative="1" as="geometry">
            <Array as="points">
              <mxPoint x="180" y="315" />
              <mxPoint x="180" y="340" />
            </Array>
          </mxGeometry>
        </mxCell>
        <mxCell id="oQco-0OTMx9-7XILpxHP-16" value="&lt;font style=&quot;font-size: 14px;&quot;&gt;Ano&lt;/font&gt;" style="ellipse;whiteSpace=wrap;html=1;" parent="1" vertex="1">
          <mxGeometry x="20" y="290" width="120" height="50" as="geometry" />
        </mxCell>
        <mxCell id="oQco-0OTMx9-7XILpxHP-23" style="edgeStyle=orthogonalEdgeStyle;rounded=0;orthogonalLoop=1;jettySize=auto;html=1;endArrow=none;endFill=0;" parent="1" source="oQco-0OTMx9-7XILpxHP-18" edge="1">
          <mxGeometry relative="1" as="geometry">
            <mxPoint x="180" y="310" as="targetPoint" />
          </mxGeometry>
        </mxCell>
        <mxCell id="oQco-0OTMx9-7XILpxHP-18" value="&lt;font style=&quot;font-size: 14px;&quot;&gt;Duração&lt;/font&gt;" style="ellipse;whiteSpace=wrap;html=1;" parent="1" vertex="1">
          <mxGeometry x="20" y="360" width="120" height="50" as="geometry" />
        </mxCell>
        <mxCell id="oQco-0OTMx9-7XILpxHP-25" style="edgeStyle=orthogonalEdgeStyle;rounded=0;orthogonalLoop=1;jettySize=auto;html=1;entryX=0;entryY=0.5;entryDx=0;entryDy=0;endArrow=none;endFill=0;" parent="1" source="oQco-0OTMx9-7XILpxHP-19" target="oQco-0OTMx9-7XILpxHP-1" edge="1">
          <mxGeometry relative="1" as="geometry">
            <mxPoint x="210" y="340" as="targetPoint" />
            <Array as="points">
              <mxPoint x="180" y="455" />
              <mxPoint x="180" y="340" />
            </Array>
          </mxGeometry>
        </mxCell>
        <mxCell id="oQco-0OTMx9-7XILpxHP-19" value="&lt;font style=&quot;font-size: 14px;&quot;&gt;Classificação&lt;/font&gt;" style="ellipse;whiteSpace=wrap;html=1;" parent="1" vertex="1">
          <mxGeometry x="20" y="430" width="120" height="50" as="geometry" />
        </mxCell>
        <mxCell id="oQco-0OTMx9-7XILpxHP-26" value="&lt;font style=&quot;font-size: 14px;&quot;&gt;Nome&lt;/font&gt;" style="ellipse;whiteSpace=wrap;html=1;" parent="1" vertex="1">
          <mxGeometry x="475" y="420" width="120" height="50" as="geometry" />
        </mxCell>
        <mxCell id="oQco-0OTMx9-7XILpxHP-27" value="&lt;font style=&quot;font-size: 14px;&quot;&gt;Descrição&lt;/font&gt;" style="ellipse;whiteSpace=wrap;html=1;" parent="1" vertex="1">
          <mxGeometry x="630" y="420" width="120" height="50" as="geometry" />
        </mxCell>
        <mxCell id="LF0f5fYzcr4s510A2Gxi-1" value="&lt;font style=&quot;font-size: 14px;&quot;&gt;Conceitual&lt;/font&gt;" style="text;html=1;align=center;verticalAlign=middle;resizable=0;points=[];autosize=1;strokeColor=#9673a6;fillColor=#e1d5e7;" parent="1" vertex="1">
          <mxGeometry x="330" y="170" width="90" height="30" as="geometry" />
        </mxCell>
        <mxCell id="LF0f5fYzcr4s510A2Gxi-2" value="&lt;font style=&quot;font-size: 14px;&quot;&gt;Lógico&lt;/font&gt;" style="text;html=1;align=center;verticalAlign=middle;resizable=0;points=[];autosize=1;strokeColor=#9673a6;fillColor=#e1d5e7;" parent="1" vertex="1">
          <mxGeometry x="1045" y="155" width="60" height="30" as="geometry" />
        </mxCell>
        <mxCell id="LF0f5fYzcr4s510A2Gxi-3" value="&lt;font style=&quot;font-size: 14px;&quot;&gt;Gênero&lt;/font&gt;" style="shape=table;startSize=30;container=1;collapsible=1;childLayout=tableLayout;fixedRows=1;rowLines=0;fontStyle=1;align=center;resizeLast=1;html=1;" parent="1" vertex="1">
          <mxGeometry x="840" y="235" width="180" height="120" as="geometry" />
        </mxCell>
        <mxCell id="LF0f5fYzcr4s510A2Gxi-4" value="" style="shape=tableRow;horizontal=0;startSize=0;swimlaneHead=0;swimlaneBody=0;fillColor=none;collapsible=0;dropTarget=0;points=[[0,0.5],[1,0.5]];portConstraint=eastwest;top=0;left=0;right=0;bottom=1;" parent="LF0f5fYzcr4s510A2Gxi-3" vertex="1">
          <mxGeometry y="30" width="180" height="30" as="geometry" />
        </mxCell>
        <mxCell id="LF0f5fYzcr4s510A2Gxi-5" value="PK" style="shape=partialRectangle;connectable=0;fillColor=none;top=0;left=0;bottom=0;right=0;fontStyle=1;overflow=hidden;whiteSpace=wrap;html=1;" parent="LF0f5fYzcr4s510A2Gxi-4" vertex="1">
          <mxGeometry width="30" height="30" as="geometry">
            <mxRectangle width="30" height="30" as="alternateBounds" />
          </mxGeometry>
        </mxCell>
        <mxCell id="LF0f5fYzcr4s510A2Gxi-6" value="IdGenero" style="shape=partialRectangle;connectable=0;fillColor=none;top=0;left=0;bottom=0;right=0;align=left;spacingLeft=6;fontStyle=5;overflow=hidden;whiteSpace=wrap;html=1;" parent="LF0f5fYzcr4s510A2Gxi-4" vertex="1">
          <mxGeometry x="30" width="150" height="30" as="geometry">
            <mxRectangle width="150" height="30" as="alternateBounds" />
          </mxGeometry>
        </mxCell>
        <mxCell id="LF0f5fYzcr4s510A2Gxi-7" value="" style="shape=tableRow;horizontal=0;startSize=0;swimlaneHead=0;swimlaneBody=0;fillColor=none;collapsible=0;dropTarget=0;points=[[0,0.5],[1,0.5]];portConstraint=eastwest;top=0;left=0;right=0;bottom=0;" parent="LF0f5fYzcr4s510A2Gxi-3" vertex="1">
          <mxGeometry y="60" width="180" height="30" as="geometry" />
        </mxCell>
        <mxCell id="LF0f5fYzcr4s510A2Gxi-8" value="" style="shape=partialRectangle;connectable=0;fillColor=none;top=0;left=0;bottom=0;right=0;editable=1;overflow=hidden;whiteSpace=wrap;html=1;" parent="LF0f5fYzcr4s510A2Gxi-7" vertex="1">
          <mxGeometry width="30" height="30" as="geometry">
            <mxRectangle width="30" height="30" as="alternateBounds" />
          </mxGeometry>
        </mxCell>
        <mxCell id="LF0f5fYzcr4s510A2Gxi-9" value="NomeGenero" style="shape=partialRectangle;connectable=0;fillColor=none;top=0;left=0;bottom=0;right=0;align=left;spacingLeft=6;overflow=hidden;whiteSpace=wrap;html=1;" parent="LF0f5fYzcr4s510A2Gxi-7" vertex="1">
          <mxGeometry x="30" width="150" height="30" as="geometry">
            <mxRectangle width="150" height="30" as="alternateBounds" />
          </mxGeometry>
        </mxCell>
        <mxCell id="LF0f5fYzcr4s510A2Gxi-10" value="" style="shape=tableRow;horizontal=0;startSize=0;swimlaneHead=0;swimlaneBody=0;fillColor=none;collapsible=0;dropTarget=0;points=[[0,0.5],[1,0.5]];portConstraint=eastwest;top=0;left=0;right=0;bottom=0;" parent="LF0f5fYzcr4s510A2Gxi-3" vertex="1">
          <mxGeometry y="90" width="180" height="30" as="geometry" />
        </mxCell>
        <mxCell id="LF0f5fYzcr4s510A2Gxi-11" value="" style="shape=partialRectangle;connectable=0;fillColor=none;top=0;left=0;bottom=0;right=0;editable=1;overflow=hidden;whiteSpace=wrap;html=1;" parent="LF0f5fYzcr4s510A2Gxi-10" vertex="1">
          <mxGeometry width="30" height="30" as="geometry">
            <mxRectangle width="30" height="30" as="alternateBounds" />
          </mxGeometry>
        </mxCell>
        <mxCell id="LF0f5fYzcr4s510A2Gxi-12" value="DescricaoGenero" style="shape=partialRectangle;connectable=0;fillColor=none;top=0;left=0;bottom=0;right=0;align=left;spacingLeft=6;overflow=hidden;whiteSpace=wrap;html=1;" parent="LF0f5fYzcr4s510A2Gxi-10" vertex="1">
          <mxGeometry x="30" width="150" height="30" as="geometry">
            <mxRectangle width="150" height="30" as="alternateBounds" />
          </mxGeometry>
        </mxCell>
        <mxCell id="LF0f5fYzcr4s510A2Gxi-16" value="Filme" style="shape=table;startSize=30;container=1;collapsible=1;childLayout=tableLayout;fixedRows=1;rowLines=0;fontStyle=1;align=center;resizeLast=1;html=1;whiteSpace=wrap;" parent="1" vertex="1">
          <mxGeometry x="1130" y="235" width="180" height="210" as="geometry" />
        </mxCell>
        <mxCell id="LF0f5fYzcr4s510A2Gxi-17" value="" style="shape=tableRow;horizontal=0;startSize=0;swimlaneHead=0;swimlaneBody=0;fillColor=none;collapsible=0;dropTarget=0;points=[[0,0.5],[1,0.5]];portConstraint=eastwest;top=0;left=0;right=0;bottom=0;html=1;" parent="LF0f5fYzcr4s510A2Gxi-16" vertex="1">
          <mxGeometry y="30" width="180" height="30" as="geometry" />
        </mxCell>
        <mxCell id="LF0f5fYzcr4s510A2Gxi-18" value="PK" style="shape=partialRectangle;connectable=0;fillColor=none;top=0;left=0;bottom=0;right=0;fontStyle=1;overflow=hidden;html=1;whiteSpace=wrap;" parent="LF0f5fYzcr4s510A2Gxi-17" vertex="1">
          <mxGeometry width="60" height="30" as="geometry">
            <mxRectangle width="60" height="30" as="alternateBounds" />
          </mxGeometry>
        </mxCell>
        <mxCell id="LF0f5fYzcr4s510A2Gxi-19" value="IdFilme" style="shape=partialRectangle;connectable=0;fillColor=none;top=0;left=0;bottom=0;right=0;align=left;spacingLeft=6;fontStyle=5;overflow=hidden;html=1;whiteSpace=wrap;" parent="LF0f5fYzcr4s510A2Gxi-17" vertex="1">
          <mxGeometry x="60" width="120" height="30" as="geometry">
            <mxRectangle width="120" height="30" as="alternateBounds" />
          </mxGeometry>
        </mxCell>
        <mxCell id="LF0f5fYzcr4s510A2Gxi-20" value="" style="shape=tableRow;horizontal=0;startSize=0;swimlaneHead=0;swimlaneBody=0;fillColor=none;collapsible=0;dropTarget=0;points=[[0,0.5],[1,0.5]];portConstraint=eastwest;top=0;left=0;right=0;bottom=1;html=1;" parent="LF0f5fYzcr4s510A2Gxi-16" vertex="1">
          <mxGeometry y="60" width="180" height="30" as="geometry" />
        </mxCell>
        <mxCell id="LF0f5fYzcr4s510A2Gxi-21" value="FK" style="shape=partialRectangle;connectable=0;fillColor=none;top=0;left=0;bottom=0;right=0;fontStyle=1;overflow=hidden;html=1;whiteSpace=wrap;" parent="LF0f5fYzcr4s510A2Gxi-20" vertex="1">
          <mxGeometry width="60" height="30" as="geometry">
            <mxRectangle width="60" height="30" as="alternateBounds" />
          </mxGeometry>
        </mxCell>
        <mxCell id="LF0f5fYzcr4s510A2Gxi-22" value="IdGenero" style="shape=partialRectangle;connectable=0;fillColor=none;top=0;left=0;bottom=0;right=0;align=left;spacingLeft=6;fontStyle=5;overflow=hidden;html=1;whiteSpace=wrap;" parent="LF0f5fYzcr4s510A2Gxi-20" vertex="1">
          <mxGeometry x="60" width="120" height="30" as="geometry">
            <mxRectangle width="120" height="30" as="alternateBounds" />
          </mxGeometry>
        </mxCell>
        <mxCell id="LF0f5fYzcr4s510A2Gxi-23" value="" style="shape=tableRow;horizontal=0;startSize=0;swimlaneHead=0;swimlaneBody=0;fillColor=none;collapsible=0;dropTarget=0;points=[[0,0.5],[1,0.5]];portConstraint=eastwest;top=0;left=0;right=0;bottom=0;html=1;" parent="LF0f5fYzcr4s510A2Gxi-16" vertex="1">
          <mxGeometry y="90" width="180" height="30" as="geometry" />
        </mxCell>
        <mxCell id="LF0f5fYzcr4s510A2Gxi-24" value="" style="shape=partialRectangle;connectable=0;fillColor=none;top=0;left=0;bottom=0;right=0;editable=1;overflow=hidden;html=1;whiteSpace=wrap;" parent="LF0f5fYzcr4s510A2Gxi-23" vertex="1">
          <mxGeometry width="60" height="30" as="geometry">
            <mxRectangle width="60" height="30" as="alternateBounds" />
          </mxGeometry>
        </mxCell>
        <mxCell id="LF0f5fYzcr4s510A2Gxi-25" value="TítuloFilme" style="shape=partialRectangle;connectable=0;fillColor=none;top=0;left=0;bottom=0;right=0;align=left;spacingLeft=6;overflow=hidden;html=1;whiteSpace=wrap;" parent="LF0f5fYzcr4s510A2Gxi-23" vertex="1">
          <mxGeometry x="60" width="120" height="30" as="geometry">
            <mxRectangle width="120" height="30" as="alternateBounds" />
          </mxGeometry>
        </mxCell>
        <mxCell id="LF0f5fYzcr4s510A2Gxi-26" value="" style="shape=tableRow;horizontal=0;startSize=0;swimlaneHead=0;swimlaneBody=0;fillColor=none;collapsible=0;dropTarget=0;points=[[0,0.5],[1,0.5]];portConstraint=eastwest;top=0;left=0;right=0;bottom=0;html=1;" parent="LF0f5fYzcr4s510A2Gxi-16" vertex="1">
          <mxGeometry y="120" width="180" height="30" as="geometry" />
        </mxCell>
        <mxCell id="LF0f5fYzcr4s510A2Gxi-27" value="" style="shape=partialRectangle;connectable=0;fillColor=none;top=0;left=0;bottom=0;right=0;editable=1;overflow=hidden;html=1;whiteSpace=wrap;" parent="LF0f5fYzcr4s510A2Gxi-26" vertex="1">
          <mxGeometry width="60" height="30" as="geometry">
            <mxRectangle width="60" height="30" as="alternateBounds" />
          </mxGeometry>
        </mxCell>
        <mxCell id="LF0f5fYzcr4s510A2Gxi-28" value="AnoFilme" style="shape=partialRectangle;connectable=0;fillColor=none;top=0;left=0;bottom=0;right=0;align=left;spacingLeft=6;overflow=hidden;html=1;whiteSpace=wrap;" parent="LF0f5fYzcr4s510A2Gxi-26" vertex="1">
          <mxGeometry x="60" width="120" height="30" as="geometry">
            <mxRectangle width="120" height="30" as="alternateBounds" />
          </mxGeometry>
        </mxCell>
        <mxCell id="LF0f5fYzcr4s510A2Gxi-29" style="shape=tableRow;horizontal=0;startSize=0;swimlaneHead=0;swimlaneBody=0;fillColor=none;collapsible=0;dropTarget=0;points=[[0,0.5],[1,0.5]];portConstraint=eastwest;top=0;left=0;right=0;bottom=0;html=1;" parent="LF0f5fYzcr4s510A2Gxi-16" vertex="1">
          <mxGeometry y="150" width="180" height="30" as="geometry" />
        </mxCell>
        <mxCell id="LF0f5fYzcr4s510A2Gxi-30" style="shape=partialRectangle;connectable=0;fillColor=none;top=0;left=0;bottom=0;right=0;editable=1;overflow=hidden;html=1;whiteSpace=wrap;" parent="LF0f5fYzcr4s510A2Gxi-29" vertex="1">
          <mxGeometry width="60" height="30" as="geometry">
            <mxRectangle width="60" height="30" as="alternateBounds" />
          </mxGeometry>
        </mxCell>
        <mxCell id="LF0f5fYzcr4s510A2Gxi-31" value="DuracaoFilme" style="shape=partialRectangle;connectable=0;fillColor=none;top=0;left=0;bottom=0;right=0;align=left;spacingLeft=6;overflow=hidden;html=1;whiteSpace=wrap;" parent="LF0f5fYzcr4s510A2Gxi-29" vertex="1">
          <mxGeometry x="60" width="120" height="30" as="geometry">
            <mxRectangle width="120" height="30" as="alternateBounds" />
          </mxGeometry>
        </mxCell>
        <mxCell id="LF0f5fYzcr4s510A2Gxi-32" style="shape=tableRow;horizontal=0;startSize=0;swimlaneHead=0;swimlaneBody=0;fillColor=none;collapsible=0;dropTarget=0;points=[[0,0.5],[1,0.5]];portConstraint=eastwest;top=0;left=0;right=0;bottom=0;html=1;" parent="LF0f5fYzcr4s510A2Gxi-16" vertex="1">
          <mxGeometry y="180" width="180" height="30" as="geometry" />
        </mxCell>
        <mxCell id="LF0f5fYzcr4s510A2Gxi-33" style="shape=partialRectangle;connectable=0;fillColor=none;top=0;left=0;bottom=0;right=0;editable=1;overflow=hidden;html=1;whiteSpace=wrap;" parent="LF0f5fYzcr4s510A2Gxi-32" vertex="1">
          <mxGeometry width="60" height="30" as="geometry">
            <mxRectangle width="60" height="30" as="alternateBounds" />
          </mxGeometry>
        </mxCell>
        <mxCell id="LF0f5fYzcr4s510A2Gxi-34" value="ClassificacaoFilme" style="shape=partialRectangle;connectable=0;fillColor=none;top=0;left=0;bottom=0;right=0;align=left;spacingLeft=6;overflow=hidden;html=1;whiteSpace=wrap;" parent="LF0f5fYzcr4s510A2Gxi-32" vertex="1">
          <mxGeometry x="60" width="120" height="30" as="geometry">
            <mxRectangle width="120" height="30" as="alternateBounds" />
          </mxGeometry>
        </mxCell>
        <mxCell id="LF0f5fYzcr4s510A2Gxi-35" value="" style="edgeStyle=entityRelationEdgeStyle;fontSize=12;html=1;endArrow=ERoneToMany;rounded=0;exitX=1;exitY=0.5;exitDx=0;exitDy=0;entryX=0;entryY=0.5;entryDx=0;entryDy=0;" parent="1" source="LF0f5fYzcr4s510A2Gxi-4" target="LF0f5fYzcr4s510A2Gxi-20" edge="1">
          <mxGeometry width="100" height="100" relative="1" as="geometry">
            <mxPoint x="1060" y="255" as="sourcePoint" />
            <mxPoint x="1160" y="155" as="targetPoint" />
          </mxGeometry>
        </mxCell>
        <mxCell id="LF0f5fYzcr4s510A2Gxi-38" value="&lt;font style=&quot;font-size: 14px;&quot;&gt;Físico&lt;/font&gt;" style="text;html=1;align=center;verticalAlign=middle;resizable=0;points=[];autosize=1;strokeColor=#9673a6;fillColor=#e1d5e7;" parent="1" vertex="1">
          <mxGeometry x="650" y="520" width="60" height="30" as="geometry" />
        </mxCell>
        <mxCell id="LF0f5fYzcr4s510A2Gxi-39" value="" style="shape=image;verticalLabelPosition=bottom;labelBackgroundColor=default;verticalAlign=top;aspect=fixed;imageAspect=0;image=data:image/png,iVBORw0KGgoAAAANSUhEUgAABRAAAAC+CAYAAABNsiO9AAAAAXNSR0IArs4c6QAAAARnQU1BAACxjwv8YQUAAAAJcEhZcwAADsMAAA7DAcdvqGQAAFYgSURBVHhe7d29axtZH/D9n5+/wgbnCoJt07iKBNsY0j3csDZeiFwtKdMFd3FcOHYX0qUMV2UF1tgLN0+34GZBSpUm7YLIFYP9X+g5bzM658yZ0UiWZcnz/cAktjwzkuacmfOb8zZrI0WU//3vf/Kf//xH/4gGId2biXTHY0A+ng3HrZlI92Yi3ZuJdG8m0r2ZSHcsQpbP/h/3OwAAAAAAAAAUUIEIAAAAAAAAoBQViAAAAAAAAABKrf348cPMgfj06VPzAgAAq0KVYe4n1EV5DwAAAGAa+r4rf4jK2tqauB8BAFh6lFuz4bgBAAAAqCu7f2AIMwAAAAAAAIBSVCACAAAAAAAAKEUFIgAAAAAAAIBSVCACAAAAAAAAKEUFIgAAAAAAAIBSVCACAAAAAAAAKEUFInDdk921NfNo8vGyK71r9/eCW+n97tZ7P3CvAQAAAAuWjGO95feeily1gZyq33e/2N/k66n6e1W8CwBAiApENJirCHyyL1uDkYxG4+WmJ7L/RP0tUUE4eL8h++cn0h/15eSoQyUiAAAAHtRO7yaIZfPlz66smzXa8lb9fvHS/gYAwLSoQERj3X55LfvnO3L2cyRvn7sXnfWXF3LT2xE5+hC1zA5EXuiA7K0Kw2wgNnphXgUAAAAAAHiUqEBEQw3kc/dS5PhAupvupcj6ywM52duSlvvdasnwozcsRC2npioxMx4eMnjvr3darGQ0Q0e8dfIhJtbtl13zWi/fjzfMZMK2AAAAwFg0hDmQ/W0wnqbHiy/vGtMCAB4HKhDRTF+v5FD9d/JiXPVX1Ja3f76Vdl7BqIOrDdmXM7nJhoUMTuSwvSanX90qzmV3Q65MT0W99EWtJR0vmDKVg+1DOcmHTt+ove7LRhxwne+rV/tunQtT2Vm6bSqgAwAAAGq47HZk+MbFlz/PZEfFoRtra/Lhl2x4tIo592aMaQEAK48KRDTS7fCb+ndHWiW9D1Nuv3yQQ7XN2cdsLhnl+VvpH4sctqPKu+O+Nyy6La/0cOjzoQzN71nvR3+ddel+tIHa66BlWL3fH34lp91Wz3NT2FZ9ug/JVmUAAAA8ZrrxOugFOEtPQD823dyW3T31/96ZfMrnTVyX7d9mjWkBAKuOCkTAY1pR4+DLPCTlVq7+UgHS3q5sR5WO7Rcn6t9vMvTmStz5JRz4HCjr/egCtct/bUhmbYWVnNdD9U7q1VY0AXZyWwAAADRB8iEq+QNU6qmMX1OmimkBAKuOCkQ00nprS/17GVT6afrhKePASw/TcH/IuKEcQQVjW4dOdYSVjHroc7AfPTz63P2xzPVQfWoAAABgOcwU0wIAVg4ViGim59ui+w0e/j3lrIHH2XyE8WLnJ6zPPv05ua93FfMybrbUlgAAAMAymDGmBQCsHCoQ0VBuXsKjD+MnG1dyc74cXRUeVGKHPU/xABNTeXkpF//E88JUPR3P2WyJ7jtZqPi8vpKL8xmGngAAAACzuEtMCwBYOVQgorH0cOX+8aXsP0kEOF9P8+EX2bwu6y8PCk9TluuevDYPNXkl9dtYbeWlnuzaf3rz4H1H7f1EDvKJqlOyis+Ot+2t9N7sq/Bt0rYAAADAvNwlpgUArBoqENFo7Xd6iEVftuIn17VV2DOwwy/8pym/1fMiijcP4pN92VLrXUwZIJm5FgcnwZwxne9ncjN6O7Eisrjthuw/00OrJ28LAAAAzMtdYloAwGpZG+kaEv2Duti7HwEAWHqUW7PhuAEAAACoK7t/oAciAAAAAAAAgFJUIAIAAAAAAAAoRQUiAAAAAAAAgFJUIAIAAAAAAAAoRQUiAAAAAAAAgFJrP378MI9ifPr0qXkBAIBVocow9xPqorwHAAAAMA1937U20s9iVrLHMqNZSPdmIt3xGJCPZ8NxaybSvZlI92Yi3ZuJdG8m0h2LkOUzhjADAAAAAAAAKEUFIgAAAAAAAIBSVCACAAAAAAAAKEUFIgAAAAAAAIBSVCACAAAAAAAAKEUFIgAAAAAAAIBSD16BOHi/JmtrpzJwv6fdSu93td7vPfVTzP1tLVx2vxTXxBxd92RXH+tkmiju78uaDjbfRcv76lyI6SWPc7Ys2/H+eqo+1670rt3vD4S8iUaqWWbcftkNztPKa4xaTr/a9ex2Wazh4gbOq4Ugznu87HlVTJtw0Wk/kFP18zjNdJpOX96G53FNpmxPfS63ZNeBIAbgGnFn+XG//7hqtnIgzpNNlb6+ZsvjPj7V332cd6O8siT3C3eSuC4W0vpBvmfq2muPf54m/3fFj39Wh1K25HHQ8ua7le6BaAuCDdl/1pfRaDRefp6JdDfU36YMMjC98315vUqFi7tgdr6fyY2fZ0Z9OTnqLM2J+bicSD841t7xLquAfgjP36rPdSHdTff7opE3gRmlrjF2efvcrrH+8kL9/lba9lesCOK85WbPq3G63PR21Kvx+ajPu7a8VT9fvFy3G379LPvn9sdFORn4n8lb3rmrwkPHAI/M4O9Dkb0d2ZFL2f/vIs5SyoE72YtjT7Vk19nHXpGe+u5mya4H0fVrpbkKuvY3OfvpfdcsrR/8vmxdun+qz5Ndl5XbLx/kMD+/VZr8n8dxrd7p3YyPv7/82VVHQVvefLe6FYjXPXndvbQH38tkxmZXLtSJsKOy24dH3XKyHC67r1ekYmMgp20V0ByrG5H85Mzok7SvLk+LCnSaTh1vfY6e78sGLfwKeRMAAsR5wIoayNWRukH+7ZMcHKtfj66o6F9F+jo7OFHp16Gn5iMxeL8h++e6Mi6qgMvK1CXsGDT891JkryUt9zse3pJWIPpdVdXy/sq9Pjb47766nT6Rg7JaWXUiHBzvyFaQ24pdlbNu7da422w4LCPV8yf6jPE6pjfRqfS8/eTv5Xoa5csy9cKa0k6vL2d7l7L/ps53mHD8XZfe069x+uuwI9o2cczCNFNLVDFlWzB25OyPsrbHtrzq7cjJL61w3xPSKx8SEXVJLha2k/Kf/d6nX7z95N9hQn5bReYcVf/HgeXE86N4HIuto/E6/vGyf9tVxzk/pvo9zPvGxzU+7nFvl/jvail8liyPlK9D3gTSwqFpp1KMBurJzwX3e+BOZc+kcwdp8bEmznvc7LHUZY857rrBTDeKPVHHxj/PorIxO46V59S8jrXZT0n5dc/x6WOTxTS7v65L+w9b0X8Vp2F+vFPHNDSv41dVDuR/i/KTyXt3jqFW2PNX6j5Pna1/Xbl8PT6Xffb4ZeePPR6FONusGV9X1VIjzdPv5+1jlmt4benvnDFxivp+g+AzufdK5SffvK5fdah8/EFX7PdeqbuKhM1tORjcyKdf3e8p0bmgl/i4FKYUiL9T/J2DdPHLAnvcO+oz6xGPG3pd/Xp+7TAbOHFaz+d+jXxXYuR4Py5U/1jUe5+M+u730c+z0Y76LHKcv+LWUcve2ejGvjI6idaZzG2T70MZnJj9ngzc7+ov6iJpXtvpZWtlr1V/xpvejlpnZ3T2073g9h28n2LXS72nt/8F0p9lJu4YmOPk/5wpvFZ+/PN1suOaOo5qGR+zYvrbPOJtV1jHHecoPSYpTS9vP9k6qdcKnznx/QvrBN9DKc1v/rbT0dsuQuH8jtjvMf6+k493Kh3tcavKa+H7ZOdcdPxMenjHPnHcw+8Tv6+SOBdK82bld5ps8rEar5N6rZDv/Pd/wLw5Df0+mN5SHrfCuZOdp971Iy8Pxvlw0jUmY/Nltp7bd5Zvs3zs5+9aZU+dc2d5PFS6F9Ko9NrqH8v4WNdRJz3G1//KvFZ6bUvkEf/9lOI1MLH/BdKfZVHC88xn0yY/5ubY+eVJdE5movSL91/rWNc9J4PPFH2ema8RWd72v+sseXt6+nM9DHfs8vMi/t3Jj18xraaLobJ1Jp9fYf4J82SWl4r7jfZdyE/Fz1NcZ3H0+06nJH084fENj1vGHr/o/Ckcg8S2hbI/ez8vzaN14uuAVsgDpddw/zNN/u5W9LlN+o4/X55P8vcaf39/3+ExusvnKdL7mWjafBl9z+yYBttH+yykQ/adsmOT+AxhekbrK2afhfOr+LkK21Tl2YfMd4n3Tlu+fKe3M/+bf5XshUWLD3whIYzoi9U+8GPxwcuE71dyAJMJNuEzJk4QtWXyojvL95mXmdM9eVJNd9JpwbFMHgd7zPwTUTPbTcoPQRqk91OtZJtJ390I07pe/qvxXXP1T/aURZ3v6XPFUyeNguMdHteUdF6zx8tuN8V5Xji+9v31563M01HeDK8DCnlzLhaVjx+bpTxu8XU8WYYW86vNp+nF3zY8X10ezfJz/N7G5Dxf79xZHvqYPIT4eKSPT3TdSKZJtXrpMcX1f9JnTObR8Pqam+H7zMsi0z08z3zRcYmOd35s4zItOsbh/msea7eP5OK/X/CZ5nONKE33ZN6ZL73/B+G+c/H6G52byWOQPu6F4xRta8/X9FL8HOn8U/8z1thOSV9D7p/+vNMpuSZ6wu+YPu/CddL7DI//WOqcidPcbGvWqT7vgzxR+E7x53K/q+2Ki5+m0XsG14p0WifzRfAZ7T4L1zy3TuH7TaA/8yTJz1Ql9T3Ljqn5Hv7PaWV5YKy4j8L71vpc9vjqY710+c5tU8xzagm2Xb58pz+jtmRDmG9l+F39d7wdda1dl9Yz92OVRLda24X1Vq7+0uPnd2U7mnCz/UIdRvkmQ79r6bNWNAeZz87rkfqM27+pQ38+lKF7RSWgtPz3ux6qdxLZakV739yWXd09/N/xlqtm/eWnyqHMZfMXpI5/4fhMcPvPhVy6oRKB59ti9j6s6pSb6NKcd/+9Ej3I5uRF1NE7mV5bYVoHpst/O7/4R8mdE4U8mcpvK67W8W7L9rH6uWLy/HRes5PyBhPRVp7nZcfdTmirJ+QOJuP2rj2mq31GnfM6bxbyBnkTqHQ71KXliWy7ye8z660t95MvPXl+NnF+XdOVPVPGFXCI8zAnUx5rdfNUuEYU5tacYLHx6WrKph7wr93rv+6qo5CaxzkRH/mmiqHmUQ5UxUsplAOVouvsXeJms62ZIzx8sEQ+XPaJzneZKePT5ENUpnxIx7Rz9E0Vxy+H9jt1XLJ52vMhsHpORfNnxR3figc/2mvBoXTUtmVDc6dzv/dr95nvdlIPUSnMgz/BA+W7JatAVAe25KlsrV/Ugc9sttQlPvEl9QSgXiLcmKfBebLx8/5i5mGp4zIsBMzJEe5rozvOQkkmcz5W69L9WDb5qjuh7pWbSydIk445SSx1gqkTQ74P1afx2QtCfuLqyYIjh+14v/7FslqQR2fKf+XnxGNgKwnCC/ak420KMJNOtgCy62SVifPKa3WOu1fBpwsQ/QAUlYf6el5Hx36/ScibQMw0BKSo8j8q2R/WneKKJiLOw5yszLGeFJ8+Jq7yPYjP1JLdZNd9mIqLh+rFUEvgkZcDtjyetnI1ZT5xsz8PXedoxz5N2DxUK7M68eld4vhp2QbYqJybht+Ap/K3rQC7MXNkZkyFm0kL/7rnVSaaMtxuYzuD2HVmr0xc3P0a+W5sySoQ3Y10QngzYXshTf1UL5dhisv0jwJP1hqbxdVwpyzbjc+8qYvCJxXMF5/KXLNnwZ2kWx71YlsLstr/C7ma6sLpLhCJ/U7bcj1b/is/Jx6DYlBS83g/14/wd6+7J3F2Snok3pfBe30D4OW7RH5I95aKkTeBWFCZ5Fu2SoM5xhXNQJyHOVmZYz0pPn088gfCpWIT1/BbeJhKhXox1BJ41OWAa5ifw1Nw68TNE117T+cvPcarEp/OMY6vo0bPZ9uzLnU/dSu9N/ty6fXWLL1+BQ19ffWeujLR75FoR4Vl31VX5OnKxPn0SCwi38Xunu+WrALRVTQVAsZir6LsqV4famW2rEttMRC1tcnTVDy4IZT506jGsqfhlH4i16J++Hf0btdXcnGukjMYHria8qHMbdfa6JibwUQFyeBv3UJ3t1atrDt0IShxLSXZk4fWXx7Yi1hhCEUJc6G9lIt/CiltWjLqX+jukv/Kzwk7bOLuBfqDUekTPA1s1uPtKq7tUJF0N3Ft4vkZcDevhV6B2dPB/r+SgCprfXfMDU7iO7ku5NlwKPImELI3jsXr+vL0SJlnXNEkxHmor/J8X4FjXTc+fRzKh/MarvLi8OMUT/usGUM9nAaUA18/m55JJ2+qh1aWjhrIlVVEhnFzNty90Esue/LuN9uIGKe9nS4gswLx6dzi+Gm4sq37OZ0v3X1ZcfoOzfWui4fnuuttuba8NY0H5T0f2+90JaNao+bw2dB87tfId9PluyWrQMwy0aF0vEdr3355XexWqWu3VYY03V8LwZw9CGaoiTsJ7A262q+/bl6bXPI48xImqNXd1f3Hf6sMpsfSV19g2/JKV3QcdbygwdXoq0938ChaIt1QZvdbJq8g8edIdMds2uNfoPLCgbp4HLb91o1xS8mrfP4TdRHTvdXMsKS4UHcXGj3kIA9+bHrpPOYHeVlLxjTpdZf8l91Epc6JSQX68lLnqO5GrtLnU34c6xxve26Hj94Pg9bksa51foZS57k97jty9sf/awuJqFLcflaPy5thr1z1HUw+I28CpZ6/Na3Sh23vfHD5clnMM65oEuI8ZBVD45u1rCLmw7isnHi+r8Cxrh2fPgJZxe1v2yXnh7vRn2a0Re0Y6uE86nJAfY9dfayP+95ckolKKHdtrOYqV2rGzeE549L8+EC6W7bncdBwkLhWLH98Or84fhrtd3r4sDou8RyFOq3NVAMn0k/2QmvZ3nVB5Vh2vc24+5WovLadhey8qLZiPXrvsnn5aprn/Rr5rt4nXLoKRP3F3ururuZGWmVCHSD+tStnutCJuWGM/Wfx3BPqIGTdyfOTQO9XnTTiratOlK3BDEMIdFAbfca19jfTHXTSZL1mbgAVEI/Hnm/I/jP9WSuGxKwadXxsjzBf4vi7YzaPIRx6XrybnnjzLbjjGk9GatJOr/stnJ9Fr68+nemW7W1TTK816XzX602bXnfIf4n8ttHdMl2xp31IwMPQBdX4+NmlI990N/AofSYf7+L1IU+7fF/leW2q41V63G23dZ3n+se6W372Odbkwy83dk4ur6Aq5s30dydvAiF7jnnXjycXstvT7dTL4g7nTqMVr+PEeQ3jJmw3x8jdbOrjFpSpT4ZyEMwvVbQKx7p2fLrisoenVN2A2pvrKUZbKLVjqAfzSMqB1DyO7nvEwxrHlVBuvY8tuVHn4SR3jpv159DX5rzB3f1dXyv09Vptm1fwrEB8Or84fhp2+HB4fNWi0lrM8Nyy99bbRemurmXDNzpN1Z9NxaJbxz8X1NI50sOH7X71dy68d/vQPORq5nQpTes53a+R7wrWVPClH8lsNnY/okFI92Yi3fEYkI9nw3FrJtK9mUj3ZiLdm4l0bybSHYuQ5bMl7IEIAAAAAAAAYFlQgQgAAAAAAACgFBWIAAAAAAAAAEpRgQgAAAAAAACgFBWIAAAAAAAAAEqt/fjxwzyy5+nTp+YFAABWhSrD3E+oi/IeAAAAwDT0fdfayD3zm8d/NxPp3kykOx4D8vFsOG7NRLo3E+neTKR7M5HuzUS6YxGyfMYQZgAAAAAAAAClqEAEAAAAAAAAUIoKRAAAAAAAAAClqEAEAAAAAAAAUIoKRAAAAAAAAAClqEAEAAAAAAAAUIoKRO26J7tru9K7dr9jdZi0WzOPFT/96l7DEhjIqUuXqmX3y61b/+5uv+yqfU53HtttTtWnXRX2uM7zuE3nVnq/q7T7vad+AlYQ5X1jrd71vhkG73U8sGLp4mLPPO78ejp1/IE6bMyTju+jODMZl7iYJV8vkc+8+4hgIc6ZC3PdLRzLGWPZWufZHONkzuvVVRXrxef8e6KCaVGBqC80T/bl0v2G1XL7z4VKux3Z2RM5/Ehhvzza8nY0klG+9OVEvbrTu/FeG8nFy3W7+gNZf3mhPsdb9WlXhT2uD33cgNVEed9Y6obhdZeUx5xsduVClcVvn7vfn79VscSFdDfd75gDXfnXkUP3W8BUAKi/HffzeLL/bF82ggpCXZG0IftyJjdunZveN+nElQrXQ3MfcfZzHJua5c+uEGnd0ddT2ZjbdVelZzuZGwKD9yV5Zhac1yuqItbT1w71t61Bdq6r+9OjDpWIU2p2BaJpWZjjhQYLditXf6nLw/GBfPptR+T8Qq5oJQIAxCjvG+xWem+oOAZWhqkg3JD9c/d7ZPBffT6fSP/duPm3/U43VB/KB9fz7PbLB/Xbjpx9HFcErr/8JGd7l7L/33Flwe3wm8jermxTSTRXpmdxjQq/umpVDKpyvnPkfkYzVcZ6LhbYO5NXWeOP7pgxOBE5+pDurWj2Ry/UWHMrEHWGUBc20yNKZxysnq+fTXBx8qKtgoIDFThcysU/qT6I8RCG4oXADm2qXse0aExcB9MqHPuarUB22FO2nMqVez1gLvzeetEwCn9IW/Y5gmEPWTd3f7vsNW+pNVRi0nZ5IRXls+B42L9l25ljoD7bIDiGLl9G370wBKjW94g/S/Ioz5yGwEJQ3jfa7ZfXphdSv7fjXsHycvFaXIa48iwrx/KyO1XORWVboVybR1ns9sEQ5nugj63uPaR7F/48k+JZeyvD7+q/4+1o9Ehbto9FLv+6MvHa8N/LRMXgumzrDgdHVybu08x6z1r0NpwjHZt2jmyvzr5Kk3LDyUPMNXV+dY5OpF9ZfqvzVZXzJwM74sk38/UiOq/z/Uy6xuBh6PSqjPWGMjwX2fltOzzfn29X1CEgpbkViKZbMkMBV9ngb92+cCLbphXBBQ7dz1HhowPAeAiDyP6TsEDY6G5J3/1dL/3jS7WOV5CZwqITDJew+0lUzKA2HWRsdMUbOlKnK7m9wTDBhEuLkVp9PxomYQp6E0xk+75RuWBfNkrmtdHDmXWgc9l97fJG1mtFvU82lMUFtuOu7/q9VbHT3ajOB7W30/nuSra9dUQdj8rg5HxfOv8euP2q76hb11W+XPvY8vL8jhy2vZubOp8nkef76vjFPQJK07DkOAMLR3nfXOqGwlyfPnal5V7CY3EoHa+c0+X3YVuVfU+GcuBeS5Zr91UWYz7c8PCR17twKudDGbofy32ToYmHBnJ1JLLz/UNeGWQWGkHvpP1OnzeTh/5edjsyfOPOMRO/qnM6jh31OWti+arphvR9gY1X82kFCma4XiSp/bwR+eS20fH15G2wEJNiveuhOvNFtlrpv1/+O/nKAYs5ELGiXKHfe5UXKO0XurXhUK68i7gdwuBVACnZEAbb0jCQz93LYD9a+w/d6jnelxkusXcmN15AY/ej3pG5F2ejgoIPJg0/eUFG1pW8U14YZz1P/WBCFRq6EB+z6SpBMLEu3Y8qXc/35XXJTYAdAqNuHN7oXn2vC++T5YNx13fl+SubD/4uDzin2S78Xnad6kLNH8bjWtfjYTu/7qpXLl3AXO/zpIcI6QDP/aK5NDwZ+IGiS0N1nD8TUAF4MLZHSljG4PEIyzkbA8ZlqO5ZIvJtaMv8+y2LsRjr0nqm/vs+jGJv1zPRaf2iYqFEZaLpcZhxFQqXz7JGWL3QCLowUYxu4tcgzVxDfmXFoL7X0/F6GK8WTX+9SIuHxesRcJO2wXJrScu7twlGuKkYQl0hbMcM9xoNSVQgYkVlc5vs/ppdwhV34fcr9OwQBnVhcL9b69L9M2uhCB9KkV809PAJ84rmgpLCEIdUYYe6sgfgBGmoTSjAzXw1ag3b83RsvbXlflK+Xqn8odZ6EQUTm9uyW3kTMK786hQqINVfdatqVhmdD4Uon6cnU3+7HWlNe6NbyN+TTf48ZUOEXOCecZOPFz5zrSAMAO6PmTNr70w+0fP0kdqaury817IYC2Ma+VWctuH1FBy8D9PRVuyEPdr0yJRgjrxkb0caQRdl55dU9Jr1DtXpVaNi8No+ICuoCEya/nqRNq/9YFnZHrRu0dcCVR74D1liNAsViFhJ7uEpUYtAPmlq/jCVsDWyjJ3Twu6j4+bsCOddsXMm4D7EaeilY4mg9di32fLSzDLDE4J9p24UIq6ngSkw/ojCET2UIttXNs+GGXbh/l5m1u0yhZb2O5r4ecrzvGnVd2xlLgAsma96zqywpwiwdGUxZqMr/nScrnsKuvS8emGHk47pDgJ9OdEVjW6d1/LJVQhM4OJJGkEfUK2KwXo9FBeB3smrjPv8aVGBiNWTD2Edtwbki6n4m2IiVFdA2SBS7yM1Z0fYtRnzdBLMPekvZS08fgVWwPSG84UtRsFS0ZppWzz1T3Yo8zgnuUBlbzyfZr1WqFm3uy91Pk95nvcrcINenwCwJOwcyWED1YbuVa57JKmfGYL0MMwojwcbGrpsZTHuJOs96BZdgWTik2DkhB1llK2j05unLq8GO0op6gjgDyfVvU+vr+RCx+teRXLWCUHPS1j6UBY002ZL9F1LWcNAukcsUqhAxMoJH54SyYaomoeplA8xzoNYV+kUT6iaFVyWG7bpPbXNcj0hZxhCCnVUzbx84ZyVhushUDYHoq20Km4X9IYzQ2hTFcn2qYqlN4+uQlkPXTaV0ef+fImuhSoeyp4FMKVm3e6+1Pk85Xk+6NVrWukTx9kNIS+bqBgA7lMwBMkttneSbbSi4uhhlM1LNymOmk9v92UrizGrdEW0mxvdVQLkT8w1v2Vc3J7lATeMvRBvuulZClPsYGH0gw3ja3gwnFR3BIgqke2i5zJXa5mOIZOGNaNZbOeIQm9Rc89Scr6bB7NMfiBQ01CBiBVjA4Ti3GyZ7CEStoIpNQeKHdqkbiPedGXdDVMIJs/OKpE82UNVOt58K1lPNbMf9xqmoAr+A/MUNO/pwCqVsh4CwSTnPnUxt09PC5+SHaZZW14lnoxm5sRSOeIgefPo3lvfYLrA5JPZR/ZUZtcrL6hUy7apMut296Xe57EPlEnn+ZxLw/Ex0uyDC6QqDQEAjZM1HH7IGuZU2W0epvbbtoujXAx39GFcpiRistksW1mMWWVzII7nKFTpqJ/Cq+KObM7TLP7P85pi50n05tTLHqATxZP6qb9yfEClAfCorEv3zYkqA/wn6rt7Fs73qVCBiJWSPTylMDedJ3siln2Yih6+cCNnMp4DZa39zbRemfkydOtVNI+KfaS/bcHKKxZNK5d7Mptbb6O7ZXoyPPS8G6tM9xK56Yk3zEwFd8/640nOS+jt+sd2KJpNswvZ7ekUGzOtlwMVPnrDHzrf9dCldItkNgG3P99K9sTu/Se6klM/fEfPleS9r/q8wzf6s6iVC731MrNud1/qfh43f5Cf5//alTO9jqeYhh35plt+J6QhAKBhdCylymU7vFCVF0/2RVR54fcI1WV3/9gbfq5jsmBe6lktW1mMmbnY/Vse36ViRxvDbGV5TS3FGFDniTietHmyaqobACtK9yhU1w7JrwsdOdSjzjjfp7I20v199Q/qILof0SCkezOR7ngMyMez4bg1E+neTKT7PdC91J7sy9ZgeRuRSfdmIt2biXTHImT5jB6IAAAAAFCHmyOvxZA3AEDDUIEIAAAAAJX0XHtr9mmwzJkFAGgghjA3HOneTKQ7HgPy8Ww4bs1EujcT6d5MpHszke7NRLpjEbJ8Rg9EAAAAAAAAAKWoQAQAAAAAAABQau3Hjx+mv+vTp0/NCwAArApVhrmfUBflPQAAAIBp6Psu5kBsONK9mUh3PAbk49lw3JqJdG8m0r2ZSPdmIt2biXTHImT5jCHMAAAAAAAAAEpRgQgAAAAAAACgFBWIAAAAAAAAAEpRgQgAAAAAAACgFBWIAAAAAAAAAEpRgQgAAAAAAACgVIMrEG+l9/uaeRx1tux+uXV/w736ehocd7P83lMpguU1kNM4zRLL/M4hd35OmS9uv+yqz3GqPi2Ww2zpCMwX5X0jXfdk10vzfOF69CAG7xNpkS9LVm6bOHVXetfud3MN8X/HfSrklfep3BFf16vzkIkPS859GzuO93X61f0Bsylce+Nzx95TTFcO222SaVO4r5zT9aRwHcDKMHmwJO0K+ZP7xmk1tAJRX4Q2ZF/O5GY0kpFefp6JdDdKCinMiymk29/k7Kc77ma5USmxLxtcpJdYW97m6aWXvpyoV3d6N95rI7l4uW5XfyDrLy/U53irPi0AaJT3jXU9lEvZieINtfzZlYctqZrsRPp+WphFxYB7h9JZphjw+Vv1uS6ku+l+//pZ9s/dz7hHtlKwc+TnExVvHnWiyj+9nrquP+u7dUbSP9Z5qKQi4OupbHQv3S8hXVm50ZXxdUKVD9/aNDLNTFe6PdkX8e4Pbnoi+0/uUjGr07sjh+43n72vPJSTgUu/PC/M4XoSXwewIlTcp/Jg8owv5M+s/KEScRrNrED8eqUuQiqo/OgFkZtd+dTbETm6IgPdm4F8VgX4Tu9TdDFel+6fukLqUi7+ocAGAMwJ5X1j3Q6/ieztyjY3f0tOxYAfz9RZSgzYeNdXcnEucjLwG4Lb8nZwInJ+IVeuQuj2y2vZP1fX9T+8td7p+4hD+RBV/JnejO1U1ZNy3ZMPR7ox3LsvceXDZfcz5cMMBn+rY713Jp+8DgXrLz/J2Z7I4d8zHFHTW2yjpAL/Vq7+uhQ57svb5+4lxeYFrieNZHqNpiubTUX0R/UXlV/GHV6y8udQrkp7t9LBKdbMCsTKFoVvMiST3KvLf4fuJ5/t4Zaf0MkT1g1X8FshzXp+N+RwGxM4qPUHwfCE1IXA7dvbV9hSNu5uHw6tiFosCt2iUy1udl/jdR7XhSkeClKvl090TN5fudcjcXpHw1Hse9s0ydIpOP7Z9v5nSqRZdctzlhcGYZ5JfRb1Wi/PL146T/geVp18Eudbf51xnvXZY5StV++7GLWOU710nC2PADOgvG+s4b/qxvJZa1xxjOW12ZIt9Z8fHxbKiagMrCpjwzhNL3HvkmLMF5RDXgxq3sdUQF2aXlT+epPfB1PZ7MqFuhfwK4PGLvPrtTm3C40Dbdk+Vmv9dZXHLzp9Oke2F3Jf/a3A9VLe/TW8Sqz/ulteoYBK7Xej8l7e34dRbDmMzsPEPZXuSXbcNz1Dd9zLY7oDinq/d+lxR9n1xF5L1L6j2NvcH0SxbRDXetcBLd9P1TZ4ODq91LXajI7TjQ4x00ARNjwYldcdpPAQFY8pkFQI06K1+p7Ywl30UIR5BFnuQuF3W7fd5KN9n+9L56/dfPiaXccPRHWlRzTETV14DtvFyr/L7oZcvcjez7Z2drLKFlfQ+d327X689zKFTkcOdWHo1il+ntWlg7VgKEg29KSqgihxTPoqNeLWxiyIH6e3G/qerHzTQYzuli7q+Gf5QaWzvgnYU+mcBRsuzba8PKTTTKdzseI3dNntyMVvXhf41GdReW9ffRu7jq3EqPU9SvOJnyeL+XbWvDTxu9Q5TjXTsTSPlKQjcB8o7x+7gVzpnkXfP+Q3eWahsWI5XQ/lm/pv55eW+VWXkxvdrWC4c/9YV+AV47u4jDWVRt+9eC4bopaXMbryMIr5XDmUqggwU6OYm1FbEZVVVkx+H8yL6U2sjr+9Xt/K8Lv6r6xx4HwoWTW0qcy6wxDUb0NScj5UmuhYMEozHXsO31ScP65ip6yCsFR0PbHUvj+28vNVVyjr+7y1J0M5cK/Vi//Vft6IfHLb3JjeqpPvGbAApsG4Yjot02Cg476oAYlr9vTUgTa8H5tpcGKOwU5PXVoaZPHpfjM62xPzvv5SOO4mPXZGKljzuG33ztRP6rfejlrnZKQCzFKqgEis4/ZzbF+1+4nfK962P1LhY75NJvgMyc8cqvw87nstwt3T3R6PIN1+no12StNSRicD93uk3jFJH//4PQt5wv1db2ffJ0wf81rhuIf5o6j6s2TfM52v6n2Pys9Vmf/tOnY/iTRSws9V77vUOU610jHab25CHilz93zcTI0/bpT3j5937R9z17vCtexxW5Z0T5cRmisn8r+ly65aZWxlGROWe5XnfxzPxb/Xep+H9WjO98K5HMYevnRcZCXjmMp0XM0yYhnT3Z77/nmRjj2r0q80rQri60nJtcKlcbi/6NoQnc/J/cTbPJBHc77PS+JabNNP5w0/3Yv5xebX8mUVrwvzor+/Rg9ETfeccT2T/DkbcB9cd3OVB9UpKuqia+jWm3h4yiTZEIPO2oTu43st8dug9GdoPVP/mfmv3PwZiXmS2i/0pwuHuIWtWZHn22bOjXiIy5jtESHH297cLtq6bP+mikWv1XQV3f5zkRwKYo9LWUuua0lOHBOTRhkzj5m6vL+IWiE3t2V3T+Wf5LB4JZ/rrCOdeJ4bJRhqkQ9tKJtrJVTIC24IVjjHS9TDqdb3KGtdD/OJHcJTzNv6/Jr2YTaTvsvk41QzHd1woUKvr8o8AswR5X0zJHuuZHOp7ctneos8EBuz5T0/srLE9AbM5r0Lp7TRPf3Menooo3nFF5WxwVA0r5eJPudzbqiriTtnHA1T631wdwP3MIQT6U/bC60OlY4HpidaNFKIdJwb3Zs4FX9r6Xuqu00tMnhvY9NwHk1tXiMOGLmw6nZ6N95w5fEciNn8qbbnslv83ufutWnvsR4jKhDd0LxLPayRJ/MtmPdkX3OCXsr+mym6EZsATnd5zwJBG8AVKhMTwxxav+y4nxx1Q7Hhts+X2gFEVtjZ79PPh2m7/cSVif7f3FL2dLjV4ypQg+9XNpmt5oY1JBTSSDHDDYJ9T67sW3954CqqT+QgvuibYbduXyq9daEycnlqkq1WIVdJq8Z2WvX3KD8mY67Cbk4mfpeJx6leOtphSMADobzHZkvdCtBY8XBOEk9hVkt0Ptq5xmyZ03Fz2I2Sc6AV5RWOplx172dizDFzg2he8ys0p6tMrPM+uAs9TYuOH/WxjSuD0uzUFNPRecEOj3fpaYanjjs4YHZ2KgL98MybhVS6mGkFjnTl4eLnsyvtyIClU7jnmdQZBQXNrkDUPWm4mVgYGxCWBGjP39qKt6l74fk9Gm3lna5MDCoRC5P2JoIMb962cJl+7hS/5eLG9X7zKxFt5Yv/HtlSL0BabiU3B2pJBw/llW7FQDBsAQqWipbpwfusAlPdKASVubfSe+POf7efaQKc4g1onYo/bdL3qF8ROS/V36XOcaqXjust3a8ReACU98BquO7Ja1fpYMvGKeIwdZ5nFQh224q4ys2XZRZTOakrE2tWIk7zPpieabQsqzx0IxsSsb1RGJkxWdDjSJcPZg69xIga1KYr8xZXeWh7AT9U5SFWA/cg89PcCkR9M6F7mOmKI24mFiIbcpx1EU6qLPgnV9DYR/dHrQiFSkl/uKUbFmqGM4cqKzxrWn/5yfbSMoFO8QlxGdOSveKTuJY+tc71XktPMOwPJ/dFPezc8PCLfwpHzj1FuOTIuSDf3IjongFHHe9zuPwU91A1T+lyP1cotFS5SZsLw5N9tb5H+TGxw+31OVI+7H1SXkq10Fd/lzrHqWY6mt4/ie/vhnYXe0ICc0B53zw6zVPljptGgYqBJWbSqFge2GlSqoUP2xgb/F0+DsLY7NrpTmoOn5z5fTCZ31O8pGLWjGwoxD/uwUm/bde/xpfEpzavMVR1Vn5PwMVUHupewLZxnspDlHLTJYVTTSnufiZ5/2YammZ/ENOjNXK8Hx+/woS8zbXodM8mMN2JJiAtTkxbnGA3n9Q0eIhE9aS4+TaF/STey59c2eWR8edMT5IbfIbUhLzxflJ5LzmR7/3S73c36eNRPLbRQzSSimmd5RN/u+w1/zjZ94snSs5+L6ZruH5x4tzxa2opvT64/Qafpfhe4WcZq/M9UvmkuF3xPdP539uv+/s4jep8l7rHyW03IR2LeSTxPWrS+8b0GnXcKO9zzTpfEtethuaFZUn3QnlUJpVO2WtqycqqZBnryrggNikr94J84PJLVg6Zbbxyyr1/Xk7Wep+HpT/L6qkbDxTXm5S/zN8T+y287tJxHBOtlodO91SMW2TTr/KeKhafg04xpiyqulaE+4s+V3QdSO7HbfPQ5cpqnu/3KEq7TDF/Rtd+VMryWZ7bmpTx7MWmfFnVQmMW+vsunBcI5kvqxI3W0xf0uKDPLgT+4qdftv5ZkOapAMOrEEnsp1CoOIXCLg8gx0u8TV7Y5Et1wXcf9PveTfp4aIU0qVWoRsckS7M4X8THN/r7uHDP0jM+ttn7ZHkgne72GpHKJ1r23c/Czxx9z/FnSZjwPaw4n9TJt/H3jf6u3ycoVOt9l/rHqV46xnkklY/q0Ntiek06bpT3Y/r7Nk2c/rNea1bZsqR7dbkaKcSJejtXvrjyqbSMTZWvbn/j9I/LV7ee+2vx5tMrA7P1ar3Pw9GfadUU4sdoCY9rHJdU5y2T/6JYJBNeJxYfk8+T/g4PJ3FeBUuWRlnsGaaGTf+S4+/OraDMLlwnosWld/Ja4c7fynu96DqQvuaE16WHor8LPIVruCd17XZ/QrUsn625X8xQD/cjGuSxp7vpRv+dOa9inO93YSf2/ragSaHv12p/F/LxbDhuzUS6NxPp3kykezOR7s1EumMRsnzGU5gBAAAAAAAAlKICEQAAAAAAAEAphjA3HOneTKQ7HgPy8Ww4bs1EujcT6d5MpHszke7NRLpjEbJ8Rg9EAAAAAAAAAKWoQAQAAAAAAABQau3Hjx+mv+vTp0/NCwAArApVhrmfUBflPQAAAIBp6Psu5kBsONK9mUh3PAbk49lw3JqJdG8m0r2ZSPdmIt2biXTHImT5jCHMAAAAAAAAAEpRgQgAAAAAAACgFBWIAAAAAAAAAEpRgQgAAAAAAACgFBWIAAAAAAAAAEpRgQgAAAAAAACgVKMrEAfv18zjqLPl9Kv7A5ZOnFbJ5fee3Lr1sQgDOU2lQ7Tsfplfqtx+2VX73JXetXuhBrvNqfq0uF+30vtdpTnnIZYQ5X0TuWuSl+7zLI9w3xIxBuVLIxRi/vepCC4+v6vjPBMLxvnn66m3fXHhenF3yePuzu2pj69Jr0n3ADPuO6XW+2EpXfdkt07akcYzaWwFoi6cOkcn0h+NZKSXwYkctiksllX7nUsnt/SP1Yt7Z3LjvTb6syvrdnUsRFve+sd/1JcT9epO78Z7bSQXLx82VdZfXqjP8VZ9WgBNRHnfRPomckP2xYsTfp6JdDdKKiOwTGzDX0e+BfHEjUrNfdngZu8Rs5WCwfVax5ZHnagSSq+nzu9n/Tx/9I8PpVNWifj1VDa6l+4Xz/O3+fbjReWzPf3HEzl44Ph15ZUd95moa3r70P1cbvC+I5PXqsnkjwvpbrrfsSJUXnmyL5NzXr08haJmViBe9+TDkSoaBl6lgrpI6Eqpy7+uolYSAACwkijvm+nrlbqJ3JGzj17D4mZXPvV2RI6u0pUMWA6u0uFkEDdArkv3T125cyn7b+iJ+ChdX8nFeXS91o3VgxOR8wu5chXHt19ey/65Or//8NZ6pxuxD+VD1DBkejNOUUmQ7/snDc93Me1xn6RWxaC6dnRUeY8GMz0K61Ui181T9FAsamYFogoiL0Yjefvc/Y7Hw5zo3hCEqNt81pW+lw+P0BcF2+K5+6U3Hi6Tb1ccAhUOfbNd5U/VtrvZOvRuKLC9CbzjWPMYhcNYTuXKvR6ok+auVTr7HEHPI9PNPdoue81b6vVWsvlhvF3cGj4hP7n3Pf0a7cccr2jb6HvGzLFT6wyCY+8KweiYFYdzxt8jVXjGnzGZOjOnPTAXlPfNVNlz5JsMuRlYUqqc+6hu6fbO5FXynF2X7Td9ufm47X63qsuZkhjPlIOn0vO2zcrCwv64gVyMyuv1ZX7eDv+9VHlkV7aD87st21HDkO19risD3ciliQbyWfeYOz6g19kd1D/uwygmLu9Banql6orkUiombR/KycCOhvLl9wGp2DeK94NY36w/Pvfz/VRtg4ej00vlATMSrjKvKLXyFMrwEBVHXxR0q8XJG4bBripzYTeFhzcMQQ93iStazvfVq9mwh/ENxmV3X5U/blszHFpXkERDoEqGvh12L2RXFZRmnXe0Wfp0ILHRFRNI2GPuhqNUViTZgD8cdiiyHw2FqJ3mjh7ObHoedV+7gEC9zxvdzV29TzYEXgcGT/ZlK9+nfu8Ttc1GoqLNYwKKjhwelw2pmSI/tT9IKzteunDTx0ttO3zjXtPHUOXjjUmVcWqdzr8HbhvXc+OJCng+tvLPcNPbUe/n3RwlvsdNTx37J9Xr9NU32z93f3dK035C5Sdwnyjvm8tUPMiWtKgcWFJDGepy5Fmr9Nxcf96W9c31/O91y5lijKcdyv5fu3l5qCuu9PVho7vlDaHVZbkuO0sqN3Dvboff1L877ry9leF39V9ZHjlXecj9aKc/qj8E9fbLB5Ujwp6NmF7d437Z7XhxrY5RVcwcx4c63jRxflWPUH3PYGPS8sZCtW8v9tX3Ajr+XnsylAP3Wq1YX+/njcgnt42OoSdvg4VwUxJMnDqrVp5CJXWgDe/HZhmcmO9ulmMVLjTMqqa7uvCPZO9spAoCpz86SaXhz7PRjnp9p2fXVBd69Z13RirQ9NyMzvbi/WXrnqg9h8x756+XvO+Su590t8ciO9ZGdPxz7rw7GbjfYyV/D9NvmjT309Ftp9K7b/4Wvk8xb2kuj1Skc3o7+156/7XyU/J4pb9n+v3GwnxqJfO/e8/sGKS2y7+/e78668T7zU1K+yncTz5+/Bp73Cjv3U8N5dK/UB49ciuV7mUxQ5la5Uw6xkuXRYk4Rit7nyX2aM53d+zH1+zyeKwsztImxUxZ2q962bBs6Z4+7uljXUy/KK3NORvfw8XbFc/hZOxb5/yP3i+5n8T7PYRHc77PS0leqZOn7D1O+fLQaf2Q9PfX6IHoaqtVhpKz77qXDy2MK8nMd6SKjxdRW8LmtuzuiVz+m7VHaiW9D6LWTDtEoiUt93um/UIVFdEQqJ1f4rWg3f5zIZeyI7u/Rq1Bz7fNEINvw3Q/NNvafCLbUUviemvL/aRMlea+bD6dfemYoSphi6VpOc16J+TDHTYKvetCZS3i9kEzev/T5Ket1oTWs7oS71dtIFd6/pjj7ahVbl22f1MhvGnZd981sU7rmftRux6atC+caxPSHrg3lPfN5XocqBtZ+cSDER6PacqZZI+1eFtbZmc9WHTvRhMD1JqQH/M3cA9DOJH+fY/uKYspcW/S907jeNjORzkh7dW1/bWZM3VSb7J59TynB/sqq5Ongge36vtF3Ss57+H+8A8HXQZUIObWpfvxTGWR4gS8WB2mO7o3L8Xkip8yrpIEc+CGzQbpUj1xrR1mlrDZUudoaKY0f/7KPWUvMVTFDM91+1I3nDvmKZB6aIX7e5IbdlVqxfKTGTLtH1M9RCxLk/Lv2vplnDq2EhhYRpT3jaKv6boSYu9MbvKhq1hKqozXzYTlDYCh+yhnzNQortzruHncRj/19QKLpad90bGinsqm3lDD0tixhsHfpvqw0HCNB1KrYtBNQ1Q5dHkx6l6z8IBqVzZjEioQ8YiELQTBMnXLZdSbCnegg79EmqilrBXHr4gKmN4GvtnS3LZA6Z/ipzm6YETfaLr9zKelabXyk600jY6nWXSh25JWSWWqH7wHvUUB4CHoXuRUHq4Q+yAM+a77updwIwP0nGNzL2fcDea4DKw/fx7myDTkllUeuniqLI9MPfJCKxt9gYdiRzBFnQR0L/KsU4KeA9w9tTts9LYdFPS8hIwygK9WnkItzaxANMFH4olqrnJibsMHsThmuMqlXPwThxO6BXO2J2SZSqzzC7mK8oltpaQLex3rv+6aXj5X8eTCJjhMPf3XsjcFxe2C3gazprm7QdBDl02vgvN9eZ2vWzKBexaklCq76bEPg9GF0mrkp+JTDDNmKJeZ3NoF70dXUWAW9bI0vUUT6eOGCXGdxUJQ3jeXTnt9c6Cv9VQergwzrYcqlz8n4wNVpuqnNGc9xeZdzpRcF7IbTyyAjg+zSv+Snoc2nho/LMWylYA7v21Pf66rdDcT5zB8eWnohx4WGrH94aS6k4B7ane4nn0Ks20EoKcZxmrlqZiZ+oaGpFgzKxDN8MWo55EusNz8OK/ovr6C2vIq8SSswXvbgnkwQy+y9ZcHpoIqyCfqhkQ/vXOn94pCqQ5VuB+YJ535N/DjXn6l55q6YPfNdl7rYVbxl5slzd17q7+b+S/U5/tk9pE9ldn1rgsqx7JtqrX/sJWR/pORbU9HVTD90V6Z/JT6HtnnzJ5a236nA7RD6RS+q/tFc2k/PrbaQE65zmKRKO+bKUtjXXk49QgEPChV/t+ocln3EgkbAnWDnJ2iJB+CNu9yxk2Tcvi3V/4VYg/cH5V2NXoM23gqfGLvXeJ9W3GcmEsTAFDQ0CHM69L9cyT9Z+omOevCqgos0a0VtFKvLNOyMFAhhdc1ufO9vAVzMj2Z9o2ciZdP2t9MKwUTqNanJ6O96Yk3D6K6AXg2uUeI3q5/rALE7Ng/uZDdnm4pGps2zQfvo5sPZf3lJ1vB8ERXcuprg57v0Htf9XmHb/RnUSsXet15TEtoX068oRQb3S3p5y1XK5KfEt8j+5zjOWb0d4m+61+7cqaPkaeY9h35xnUWC0V530SD/7pGn8R8rnop6/2O5WDK9p9nImYYYpZuqvxWJaieXiR+8Nncyhld/umRCX6+eTKUA9erKahYxNzdfvkgh/oH3YiZp/t4GVcoF+OpzlH9uRJjzNkMAPWtjXT/Tf2Duvi6H9EgpHszke54DMjHs+G4NRPp3kykezOR7s1EujcT6Y5FyPIZD1EBAAAAAAAAUIoKRAAAAAAAAAClqEAEAAAAAAAAUIoKRAAAAAAAAAClqEAEAAAAAAAAUGrtx48f5pE9T58+NS8AALAqVBnmfkJdlPcAAAAApqHvu9ZG7pnfPP67mUj3ZiLd8RiQj2fDcWsm0r2ZSPdmIt2biXRvJtIdi5DlM4YwAwAAAAAAAChFBSIAAAAAAACAUlQgAgAAAAAAAChFBSIAAAAAAACAUlQgAgAAAAAAAChFBSIAAAAAAACAUlQgOrdfdmVt7VQG7ncslj3+a8Fy+tX9candSu939Xl/76mftIGcqs+++8X+hoc1eB/mqeSSp920XNq7/Sw8v349Ve+7K71r9zuAWijvmyMuA1Yjrmi2VDy49v6+z1Zit2VSiN2S6R/GYMlr+nVPdv39JGOmeD/kg3ky53Mhzq57vtn1/LSxS5jWZbH+na/3xNmry5z7NdKONJ4JFYiaymSvu5fuFyyWLRw2ulvSH41klC2DEzlsqwLg3oPGeWvLW/X5L16uu9/xkNrvvDyllv6xenHvTG6810Z/dmWm1Pr6WfbPd+Tsp93P2+fu9UV5/la974V0N93vACajvG8MfVPZOToZxxYurqByYHnpNCvEg6O+nBx11E3efVb6E7stB1uZF5y3WfoHlVB6vQ3Zf9bP80n/+FA6fh7RFQNP9kV6N/k6Nz2R/Sd+xZK+B1H7ES8u/Hkm0t1YwfuPJaTSYOMu5e31UL6p/04GLm3y5a06YzO3Mvyu/jse54VsuXNcTpy9otR5rc79yTlPrdc+dD9jGlQg6kLoTZ1MhvnTAUBHDk2Fjl8YKPqirYJ9UUEDPQawjG6HOqzZkhaBBbAiKO8b47onH470jacXW6i4QjciXf51pXIClk4qzYy2vP15JjtyKFfEg4/b9ZVcnMd5QKW/vh84v5Ar10vo9str24D7h7fWu76cqDzywTUQDP4+NA3Gn7xK4fWXn+RsT+Twb1c5+PVKbaH289FrSN7syqfejrr/uLrHCuvHz/QKvGvlzPVQldcnsl1ZETiUoc4zL8KrBhrK9CjsqPN6ssH7GuvRQzGp8RWIphCSM+nrwgKLZXpwqYv+m5IeYM+3pT8YyatNP9SPu7OHJ3U+NM2c8OP1TCWk6c48fq3YC6F631a0zvsr93rG/j3cd7xfvR1hyXKpk/YZ20JuW1V1i7da32sZLw6liFrEg795S+lQavt+u19648+o140KtWyYSC9/fwo8wEd53yCbXbmYRw8ULNy3YaIkTKanLRv9cjRscLbl+qkqO/PYT8Ve6bKS2G0pVJ63lzJ0Mc3wXxV/7e3KdtCA25Ztr4HAjEApG2HyfWjjrcoeZt/y98N0bO9vO0LHjPwpNYzO4bCXsWmo32tJy/2eZHop7lQ25s98b5iKs/V+Jt5P4kHo9Gofyo7udawbHaqodU1P50nrIanZFYgq82x0xbQ8VV6ccC9sD66qi35b2iqIWN90xb+5YHfk0OumXhyOoB1K52MrH46gCy8zHPrJUA7ca/rCctndGG9Xum+vEiaxTl/djupK0HI6AO3IN28IhR4esXPUocBZFnXSPrAu3T/1OroSwg2zcUGqCZq++0Okb+RsT+XHrHLQBKvZ3+xi91NRke5cdvfVG7jtyoLic5UfVa60+2bYBZCjvG88ffPX0T3cJlxr8UA2t2V3T5d1GxUNahkdW0VDT1Vclxqifti9kF031cjoneulNLGsJHZbJuH9ghuy+qxVEgcNZeh+LLK91Uq3dUwFJSNMZmanD5ocg152OzJ8486vOF5W/179pdPhQl57lXXxteH2nwszquDijbdOsgF9hnvDJLWfNyKf3DY6hp+8DRbC3WNNnIpC3/e1DxO93VFXgysQVXBgaqk/cZP9QKYtoAf/3ZdLPdw5CwCVfDjCR79ACYcjtF/Y1oVwKNO26Fezlm6zb10ZVNj3pey/sftOrdN+pws890vC7ZcPqqg5kQP/YrbZlQOGUS2NOmlfiyqQzPCr4OZ0XbpvwqE3AVOpcWlayyb2lFF5/9XE3jThkB4AGuV9o+leCeqm0vQaP+7TK3Fp6cY5PQxVOd+XjbwyIG4kHsdWfb8xLRui3v2sznjP8UHivK8uK4ndloiKrcy8tcl0DLV+qe5dbocsToiTTM8klUN6r6hcuG/B9Xhdtn9T6ZdXALvKXtnNK+tMJaPoa8O4p6K9l1RrfczWyToBxNeN6e8N08L9rL88qLENloebyqYiFghGkplh+Op+UOWn7DUakRpcgWgKkWhuDCyzshbHuMDRpm01HMiVChbkeDsKFvx9Z5P0FtdpPXM/Jqy/vFCFmSucTE83e/HRwQmWQZ20rykYeuMNrTKFT4qt1NABVK2J2ye0mFu0mAMxyvuGy3t+q5vP7/f9MA7cjX2YiUkvM++hZXoKxZUGiaGNtlIgHHq680uqz3F1WUnstixUnGQehhA28s4i64Fc2ZDkeibFcyfifqTPzez8ddeCYMTNunQ/2vlQs7kuU70d051L5hUfE2evMjt/avX1JHgApxnivJM/MFMvPGyrqRWIpnUpbEHA4tmWwrpzjGQtUffIPOXPVfq4Zfz0sPL3r27x1MNg3P50EOSGyVbPCYKFq0z7+satVhu2gMoLn5iuYLSVGn6PWgBzRnmPXPHmE0vMNcrpmMlO9XEoHTMHoWvQvVfEbg9Pp4HuMahjqXpDDbPeaDFdeZiN9ii9+deVhzqtdVxWNk0MHt5mS7bUf5f/VjXvu84d03QCuKPqz4Ol4HozM3T57hpZgWiezBV1R7WVBSo4UT/TNXUx1n/dVYH8eFLkIteLy8x30ZJWxVDheTCTrrpgNVz0hab8/csCFs0Ol3AVSXqhsmgpVad9TW7Yy0k2T2HFtoP3uoKRSg3gvlHeA6vBNMCVzH2Y9SiyD7+oHvkxD8RuD8z0+iyrPHTpnz0IJRb1TNX5amLloZ7mgMpD4FHL5su0Pdrd4g9R5iFZtTWyAjHomuoW/4EIdE1dEDdhdtjF3OOe0rzz27YqzF3AcHSVD2Gx3CS7k57SVSl8cptvHNCWv395S7j7W+GzuWGzWAJ10r6esocC2QqMsXwi/wEPOQHuG+V9Q+kKgdRE+tdDcwOx1SLdl40Zfny+L5+rHkbgpvIwIz8Scwvb8vauQwyJ3R6U3xOwpCHWpn/cu8ymj71ncK+oOC5r2K2sPHTTyZQ+oA6LZyqRE4185qnLKk1f6JzhdzTxlU07hSazU1NEMaE/RDnVUFT5pPbmavBDVPDw3ITZZrLsaE6irED35iFp/2GHHtkhLJady0AVJHd8qqLZt/4cfutD1qPM7bv9Tk/unX7/tKwLfRjk2pZtLIs6aV/HessMqpCLf7wwxu0n57rP13poCgBgNs9fFR+EpW9IXVwx+YFUWDj3EBTdOyR+aIrttX+Sz1tlH1wQpa8rb+/+8Atit4fj5jyc0BPQpr+Kx72Ko6zXaPbgm3FjbTY3dUJ2TdCVh/QyXS7ZQ4u6r72GoHH+sNfw7EGF+/Laq2jMR/nwUEHgXlCBiAdmJ8ntH9vhZH6XYjMU1A8gzHw4fTnx5qvb6G6ZXiR3roxJ7Hut/c20SIz3rT9r9P5/7cpZxZw4uvdL/zgcPvfhlxvbA6bsybxYrFppX4NupRqoW5ruxng/H1tyYyaCtxWL9onPOiDy1skXJvYHgPnQDZSq/H3mPc1X3XiKnq6CXkZLy/QYVuVoMMRMLR3RcxD6vdF0PJY9kdWt58rtefQqJnZ7GPbp14rpWDA+9tky7o1WTP/OkT/ceSCfzVQV0XDFfLHxVhaTpebB1ktckY3F0udh9kRlmyYdOYx7iurYW8XZ4sXVNi/Qawy4L2sj3X9T/6BOOPcjGoR0bybSHY8B+Xg2HLdmIt2biXRvJtK9mUj3ZiLdsQhZPqMHIgAAAAAAAIBSVCACAAAAAAAAKEUFIgAAAAAAAIBSVCACAAAAAAAAKEUFIgAAAAAAAIBSaz9+/DCP7Hn69Kl5AQCAVaHKMPcT6qK8BwAAADANfd+1NnLP/Obx381EujcT6Y7HgHw8G45bM5HuzUS6NxPp3kykezOR7liELJ8xhBkAAAAAAABAKSoQAQAAAAAAAJSiAhEAAAAAAABAKSoQAQAAAAAAAJSiAhEAAAAAAABAKSoQAQAAAAAAAJRqbgXidU9219bM46iD5fee3LpV8MDK0sgsu9K7duvhflQe//Fy+tWtP62vp+P9LO15dyu93/3vOpBT9f/ulyk/rf6u7wfuF7XXL7tqf6cyfuWBmbTgnMIjRXkPkwe4xt0XW6YlzrFgWaIyLyrb42X6uMbtzyvnMbvB+yhNksc1TsNE/ipc+1PXgGJemDrGw2R+zG+WKL2miUPjfc2lLJ8xvsdyqirzC9eFZSqbVkODKxCHcik7cvZzJKORt/zZlXW3CpbDTu8mTCO13PRE9p/cofIKk2125cI/7j/P1BkjcjLwXlPL2+d29emogO3jochx3+5nWc+7r59l/3x8nbjTd/Wsv7xQ+3srbfc7gHtEed9w6sbwyb7KA7gvtkwbn1s3PRMtSN97bSnLvL0zuQk+o1oGJ3LYJr58GLYyr3Pk552+nBx1okoivd6G7D9zMaRa+seH0vErAnQlkzrvxbuHKN476EojtR/x8oGKdaW7QWXwHJkGhvZhcP9g02v6Rp3ivlT+ON+XjTtXIrblrdrfxUuigtVXUeYXrgs3crYXXTswUWMrEG+H31TgsCvbm+4FrBQdrPaPRQV59ChYTUMZnovs/NJyvy8nc52QLWlxnQBWFuV9g5meKh0Jm3CACs9fqRtKFV9+pIfywl1fyYWKDU8GfmVzW94OTkTOL+TKxfu3X17bxt0/vLXe9eVEnekfXA+ywd/qrN87k09ehdD6y082bf92VQVfr9QWaj8fvcakza580hXgR1dUKMzFrVz9dWk6DPiN8Da9LuXin2nOsoF87l6ajiXjfRXzBxqssswfd14ZVxSvS/ej7iBzKFepRiOzP+oaYo2tQBz+qy5mz1r0Plhh7T/0Ce8VPuYkP5WeN5Qma2UsDq8JLwZmuMTvPRkE67l1zH6z1xKt0onhcc3qAm9bjP3vX9ly713cL3Urr7d+dTrZ4QXh37Ol/OJu9qnStpcPiRmvW3i/vMXZfqcNFaioUFM6+m+lrZtV39+1bquAWHQLuntv+75Za5fdfvdLb/z9KltS4+NQ/t0DUT5Otq7HeTmxTvkx06q+SyL9gm3t30/VtvlnSH1GYEqU9w2lr3ntQzuKQd9g4uFVxGmFMioqB+8Up80iumYUhtXW6LEyyzaN5ka+pEd7XMrQxTrmml5oFGrL9rFa668rk2/a70blvcy/D23eev5WRqML6SYbl77l74e7WJfunyot3qX7H1/+O3Q/OVVxqKnwPZGDuJdgkI42ltz9Mghjc3c9Cc9J/3zMtnNXHXNN0deXKHYlLl1ek8p800ARNjwYldcdpDS0AnEgV0ciO98/jC8IXBRWz2ZLttR/YeFzKPt/7eZDEfTFQFd4bHS3gqE0/eNL2X8SBXLn+9L598Cto7s063VUvvjYyvenh+UEvR51QfdkX7b8Yb3qoqUrxuYSwC49XbBGwz/U968c/mMKet3yOB6eXi+d7PCC7G9mccOq5figJAB0VNruSzbUxQYZOojY6Io3rNENkzHXARvwBMOwkoHopO+vP7POS+pHM1y7LFDVlan7anduH2VBrwmsOnKYDf1Wix2SU12JaCr94iEf+XfNqGPdHsqB2685tmodvzK89JhFN3rF76KPU0e+5UMG1JLYv3bYvZDdbP8lASdQH+V9Y5myhiFpyycdp4VllCo3VclaGJY4S5w2LTN1iSr3vfJHl32d7/5wZzfsLf58nlm2QZodDbLjRoPcyvC7+q+sUeh8KFGVlMeOfpnUoGQqKBl9cr+uh2JSNRiJVB2H2tEELWmZmLK6PL/sdmT4xtuPHuas1v3wSzR0tfJ81NeXK9nOPo+ulErErVgSk8p8M52NPq+jjh9ck6enDrTh/fj4/Twb7ajvq27o3Qtaf6QuCyPZOxupwr4xljrdXTrt9MpS5GZ0tuel2eDEfB8VgHpsuhb24fadrds/VvuRE7X2mApC1Ws7o7Of7gUttV0hz7jPFeSv5TJTukffXUseIyV1PENxutRLp1C9c7YqHQvvF+Uhu63/PcLPWe/7F/NDuN8oH1dIH9dJ25ccW/Nd3b6S5070ucvSItg2/VmKx9EKzx+XnlOcNzPlYzTruLl8S3nf8PPFXKeK1+omeIh0L7vmp8uakmt/VE6nyr9kGVwZN2RcWaXfN7l471NZ9mXvPU15uZh8qL/Ho1C4hkfH2lOa7xybhyYcf5dHCzHTiliNdM/OPy+tkteGMK1t+sVpGJfnqeuJ209lbGq3y9O9xudZJquR7guUuNba9Nb5x0/XYl4c57P0sqrXhnnQ319rZg/E7OEQQe+WbA6FffnciJ5jj1XWQpmxvday1oi863pqclXTqjWdYIhEPoTGDVl99Ny8Jom5xdov1Lk01fCPKdLJGbzXw6BPpF/WWy8QtiTf/nOh9rsju79GWz7fNj0jvw3rtEXN8/srE4dY2p5UcrytjpZvXbZ/U+F1Wau7a+XdasXfVbfU+fMMxeeOkw31cQ+iKKyTOmbRdwkeGuMNT+no7xNZ9nkxsWIo74ElE5UjZliiun17EZZssrktu3sSjjKZIU6rlHqIihnZ4PVMCoa3eT1X2ulZtoxZtkHCwD0MIewROgvdy1XHHDu9T+UjVnR8otMomjsR8zV4b++TwrkutQlxqHMy8EfzpMvz+cSSJZ8HK20nmENzPAdiNn+qubfPygOdt9Rfz7yH8DGqoclPYU7ZbKksUrfyAA+v3lAEMzQmr7BwFwETIM6BP1eHCjr0RWlkusW7vzeBGxaQHePsWExrmnSygaBe5y5PdXRDn/zPPctk+3P6/rXpIcPR+9m5GkuYir+7s0OIZuUNN9E3A24Idv/Y/RlYNMp7YKnoqT/Csm0OjbF+jOaWicMPN7tyoMsm76EMeaOm+UxuWhNzY1lulm3gs1OfmIbimk/wtkOPi3TMqOMkHaOXD29UeUXHJ7pSuVbDNGZhhvYf6UrArIJ9WjUbsu9TVKGJ1VLoUJFqrEIlKhCxupLzZ0RUQPDaBQ225aB8Drrp3UrvjQs2zL4b2irhzccXLlMc62nS6eupCwQrWpFrcQF9YpkqHefx/acwPkbxcpfK1MnWW3rG0dnkvUWzz8rchgCAXNjDI1juUl5kPZC9pU753vrFa7pUMUdW4WH3UaOsnWUbjJmK37LKw3VpPVP/lVXiRL1UdYXVxMpDPYKIysN7Znvi3qXyMDgvgSnd5T4GoWZWILqhpoWHPLgheoVhjVhKg//aYQ2Fp3H5XO+ruLXBDmG9q5IekOYpT+7nR80NnT26knj6YtubcIqnDdZNJx1U6t59x/4j+Ke3/uuuOtMTj+w3QWvdJzjO8fvXEj5h0Gd6OpRNAlzWMjvVd1VMjy3vqecZN/ys0KKXcxOeF4aeuSHZwH2ivAeWmymjEmWLKiOCp6IukP8QjfABHmODv8tHGsyyDRwdm2SVeSUVr6YiqTBti3tg1m/beUzu93arrDx0cWXpA+xwR7ryUPfEtQ0Fs/U8zGL3sjiU8hwTuPuhw7+juzN3316YRkMLnvCNTDMrEJ+/MkNMD9veDX5eMTHhaa5YCnYIqw4KJrTqumFqwcVCpbXu7XZ3LWnpocpBBZLrleh+e+zWXx6oi3H0FDN3fHd6r+q3uNdKJ6/H5117sLkhSuGTGsf7f1UzuKn3/Se0lk+h/Yd7kpz/xLmsp8ObssC3La96KuQKngw+/XfNjtll97V3zNQNnr5uVu7HfX9vOJhmeyUC94zyHlhyqTIqKyMmNBLfB1emZmW47bUSVVq4dcrMsg00N+ehjvMqKvNSsVecX8b3CRUVVnlZ0GdkxD2ycx7qysM7VsRUxaGU55jIljV6Kqg73Q+hqUOY16X7p55/SxU+a26OElVgiR4aSAGydHRQaeeRGS8b3S0zHHJiK5YevqLn0fPnjXsylINRX4UZUYXV1HQ+0vMdevlobUOGb9zcbomeaY+PfviJOgbizQOozqWtqtbelDrp9PWznQ8pNeegWmr3pHP0JLk3PfHmQVQBzrNpW6DrfX/zUBX3uaf9nAF9nPQx8Y9T+9vEFl3zEJOBCrfzOaZm+a6pY9aRb/q6OWE/erv+cTjn5IdfbtS+dC+CsGIRmC/Ke2DZFcuoNel8L++BNjclcxgHPdZ0DxT12YJY9GNLbswczamek8os20Buv3ywDYslcd64N2ox9uoc+cOdB/LZNUAX59bUi21QsiOZlMTc0nq5U7wG67onH0zFeWrecbWUjZ4pkYpDD6kARk3J+yF1JWHqgumsjfTkHPoHdRDdj2gQ0r2ZSHc8BuTj2XDcmol0bybSvZlI92Yi3ZuJdMciZPmMh6gAAAAAAAAAKEUFIgAAAAAAAIBSVCACAAAAAAAAKEUFIgAAAAAAAIBSVCACAAAAAAAAKLX248cP88iep0+fmhcAAFgVqgxzP6EuynsAAAAA09D3XWsj98zv//3vf/Kf//zH/AHNQbo3E+mOx4B8PBuOWzOR7s1EujcT6d5MpHszke5YhCyfMYQZAAAAAAAAQCkqEAEAAAAAAACUEPn/AXSdj6rrUjVMAAAAAElFTkSuQmCC;" parent="1" vertex="1">
          <mxGeometry x="280" y="580" width="886.74" height="130" as="geometry" />
        </mxCell>
      </root>
    </mxGraphModel>
  </diagram>
</mxfile>
